HIERARCHY
ROOT Hips
{
  OFFSET 263.056 91.6644 -274.608
  CHANNELS 6 Xposition Yposition Zposition Zrotation Xrotation Yrotation
  JOINT LeftUpLeg
  {
    OFFSET 8.64259 1.95398 -2.38835
    CHANNELS 3 Zrotation Xrotation Yrotation
    JOINT LeftLeg
    {
      OFFSET 43.7702 0 0
      CHANNELS 3 Zrotation Xrotation Yrotation
      JOINT LeftFoot
      {
        OFFSET 40.6238 0 0
        CHANNELS 3 Zrotation Xrotation Yrotation
        JOINT LeftToeBase
        {
          OFFSET 12.7242 0 0
          CHANNELS 3 Zrotation Xrotation Yrotation
          End Site
          {
            OFFSET 0 0 0
          }
        }
      }
    }
  }
  JOINT RightUpLeg
  {
    OFFSET -8.2249 1.95398 -2.59336
    CHANNELS 3 Zrotation Xrotation Yrotation
    JOINT RightLeg
    {
      OFFSET 43.5653 0 0
      CHANNELS 3 Zrotation Xrotation Yrotation
      JOINT RightFoot
      {
        OFFSET 40.6238 0 0
        CHANNELS 3 Zrotation Xrotation Yrotation
        JOINT RightToeBase
        {
          OFFSET 12.7242 0 0
          CHANNELS 3 Zrotation Xrotation Yrotation
          End Site
          {
            OFFSET 0 0 0
          }
        }
      }
    }
  }
  JOINT Spine
  {
    OFFSET 0.165834 0.87714 6.61349
    CHANNELS 3 Zrotation Xrotation Yrotation
    JOINT Spine1
    {
      OFFSET 7.38963 1.71661e-005 0
      CHANNELS 3 Zrotation Xrotation Yrotation
      JOINT Spine2
      {
        OFFSET 11.9445 1.14441e-005 0
        CHANNELS 3 Zrotation Xrotation Yrotation
        JOINT Spine3
        {
          OFFSET 14.7254 4.19617e-005 0
          CHANNELS 3 Zrotation Xrotation Yrotation
          JOINT Spine4
          {
            OFFSET 10.9679 0 0
            CHANNELS 3 Zrotation Xrotation Yrotation
            JOINT RightShoulder
            {
              OFFSET 2.46616 -1.6653 3.69651
              CHANNELS 3 Zrotation Xrotation Yrotation
              JOINT RightArm
              {
                OFFSET 13.0012 0 0
                CHANNELS 3 Zrotation Xrotation Yrotation
                JOINT RightForeArm
                {
                  OFFSET 28.7848 1.52588e-005 0
                  CHANNELS 3 Zrotation Xrotation Yrotation
                  JOINT RightHand
                  {
                    OFFSET 26.5688 1.52588e-005 0
                    CHANNELS 3 Zrotation Xrotation Yrotation
                    End Site
                    {
                      OFFSET 0 0 0
                    }
                  }
                }
              }
            }
            JOINT LeftShoulder
            {
              OFFSET 2.38034 -1.29275 -3.7523
              CHANNELS 3 Zrotation Xrotation Yrotation
              JOINT LeftArm
              {
                OFFSET 16.3182 6.10352e-005 0
                CHANNELS 3 Zrotation Xrotation Yrotation
                JOINT LeftForeArm
                {
                  OFFSET 27.0901 0 0
                  CHANNELS 3 Zrotation Xrotation Yrotation
                  JOINT LeftHand
                  {
                    OFFSET 24.5451 1.52588e-005 0
                    CHANNELS 3 Zrotation Xrotation Yrotation
                    End Site
                    {
                      OFFSET 0 0 0
                    }
                  }
                }
              }
            }
            JOINT Neck
            {
              OFFSET 5.0226 -0.0266342 0
              CHANNELS 3 Zrotation Xrotation Yrotation
              JOINT Head
              {
                OFFSET 6.69364 2.86102e-005 0
                CHANNELS 3 Zrotation Xrotation Yrotation
                End Site
                {
                  OFFSET 0 0 0
                }
              }
            }
          }
        }
      }
    }
  }
}
MOTION
Frames:	17
Frame Time:	0.0416667
-167.025 96.5042 -176.976 89.1728 -33.849 90.2397 -172.147 7.32539 90.3648 -13.4263 9.20324 -0.943292 63.6873 5.45161 9.66354 31.8537 4.01468 -12.1089 178.648 6.49859 91.7926 -12.8531 5.54952 -0.371609 65.7126 -1.97622 -1.07723 29.0253 -0.492449 8.33651 -0.148096 6.36893 -90.1206 14.1357 -0.352529 -0.193661 2.46481 -0.360702 -0.17797 -20.0705 -0.278013 -0.290657 -0.0578425 -0.278027 -0.290659 83.4587 -52.4499 -109.918 22.4821 -12.1307 11.9509 6.79511 -2.07469 -95.3527 0.161316 0.197192 2.16683 -102.557 -43.9209 57.7333 -27.8604 3.45602 13.9038 -17.8527 -6.68127 -91.6301 16.1675 0.723339 0.613438 7.42283 -2.04983 2.0016 -6.65768 -2.35922 -2.074 
-166.894 96.4794 -177.106 88.6582 -35.2781 90.4211 -171.96 7.82705 90.6583 -13.8418 7.13848 -0.877192 64.4693 5.27325 8.60197 31.5432 3.71117 -11.627 179.086 6.74606 92.2635 -12.3268 4.70323 -0.57573 65.5956 -2.153 -1.18045 28.6845 -0.536569 8.31994 0.0338146 6.3209 -90.1687 14.232 -0.0157725 -0.336412 2.56096 -0.0305667 -0.335397 -19.9739 0.0860772 -0.325596 0.0387842 0.0860686 -0.325604 83.2303 -52.6166 -110.196 22.3682 -12.9036 11.84 10.405 -1.16275 -95.943 -5.61054 -0.188286 0.771355 -102.803 -43.9523 57.3737 -27.7777 3.61768 14.0601 -19.1354 -6.84167 -91.4422 14.0633 0.354145 -1.27459 7.67619 -1.29281 0.930832 -8.66438 -1.42947 -0.657775 
-166.542 96.5125 -177.071 88.9962 -36.9754 91.7531 -171.367 7.76044 91.7638 -14.7433 5.98498 -0.859705 65.3469 5.25783 8.38794 31.4808 3.64198 -11.3785 179.63 5.80634 93.2856 -11.1158 3.64229 -0.611872 64.8372 -2.16472 -1.1998 28.0383 -0.497975 6.49809 0.246162 6.33702 -90.2876 14.2004 0.346714 -0.624927 2.52938 0.318883 -0.639589 -20.0053 0.518503 -0.491836 0.00733704 0.5185 -0.491841 83.3262 -52.6613 -110.042 23.061 -15.5651 11.7317 21.4578 2.71218 -97.6072 -12.5345 -0.7059 1.56526 -102.774 -43.8769 57.3846 -28.143 3.92844 14.0239 -20.7414 -6.92876 -91.7022 15.7504 0.432057 -1.09675 7.19988 -1.04135 0.779512 -9.21083 -1.1538 -0.515117 
-166.016 96.5396 -177.01 89.6292 -39.2422 93.7896 -170.585 7.55218 93.3443 -15.8882 4.7168 -0.811856 66.459 5.40418 8.72417 31.5552 3.74876 -12.1904 -179.543 3.98816 94.7874 -8.52035 2.11633 -0.634953 63.6067 -2.22568 -1.26643 28.4866 -0.449767 6.58738 0.537273 6.39202 -90.48 14.0932 0.829737 -1.0764 2.42202 0.781542 -1.11188 -20.1132 1.11487 -0.777281 -0.100513 1.11484 -0.777285 83.6199 -52.5701 -109.644 23.0673 -15.2936 11.6798 21.0012 2.44865 -97.8821 -11.9238 -0.665224 1.57287 -102.769 -43.9914 57.4439 -28.1578 4.0661 13.7987 -21.3615 -6.88502 -91.8325 16.1323 0.438438 -1.12599 7.16919 -0.996705 0.937168 -9.59409 -1.13919 -0.546451 
-165.39 96.5785 -176.969 90.6369 -41.5511 96.5668 -169.675 7.25532 95.4116 -17.1158 3.68775 -0.753317 67.5842 5.21804 8.38418 32.0379 4.15479 -11.4415 -178.609 2.52821 96.5672 -7.14106 0.659598 -0.530974 63.08 -2.23122 -1.28951 27.7969 -0.539128 6.67924 0.830757 6.44787 -90.7028 13.986 1.30315 -1.5856 2.3147 1.23214 -1.64141 -20.2213 1.71941 -1.12066 -0.208647 1.71942 -1.12066 83.6404 -52.2219 -109.728 23.5882 -15.0051 11.862 20.235 2.15729 -97.8843 -11.7301 -0.663429 1.72199 -102.714 -43.9037 57.4868 -28.0571 3.56459 14.3483 -19.6176 -6.603 -92.0726 14.327 0.434191 -0.795832 7.12869 -1.01809 0.874385 -9.76234 -1.15034 -0.473053 
-164.738 96.5976 -176.897 91.9525 -43.6239 99.503 -168.892 6.86867 97.3052 -18.5852 2.00393 -0.54768 69.1338 5.16789 7.98974 31.7451 3.88461 -11.3874 -177.791 1.60558 98.2922 -7.1515 -0.360696 -0.388212 63.1588 -2.19014 -1.26642 27.6154 -0.600352 7.21375 1.09659 6.52341 -90.9235 13.8407 1.72394 -2.08068 2.16909 1.63073 -2.15451 -20.3677 2.26952 -1.46642 -0.355039 2.2695 -1.46642 83.6612 -52.2771 -109.679 23.4946 -15.1398 11.7479 20.2088 2.26925 -97.4052 -11.9463 -0.591989 0.83278 -102.825 -43.9033 57.3189 -28.0017 3.81645 14.1421 -20.1787 -6.73269 -91.9451 15.4835 0.524972 -0.452851 6.95101 -0.988076 1.00793 -9.94201 -1.13948 -0.582942 
-164.094 96.5858 -176.818 93.2725 -45.2671 102.369 -168.177 6.48086 99.1255 -19.7483 1.11437 -0.422997 70.3021 5.20192 8.06029 31.7604 3.91166 -11.6793 -176.967 0.759071 99.9195 -7.19941 -1.54959 -0.313518 63.2694 -2.17204 -1.25952 27.7346 -0.566423 6.94842 1.31008 6.58616 -91.1275 13.7212 2.04945 -2.52937 2.04924 1.93616 -2.61707 -20.4876 2.71473 -1.7966 -0.474944 2.71474 -1.79661 83.2503 -52.7461 -110.125 22.8971 -15.143 11.8795 20.0627 2.32067 -97.4937 -11.7409 -0.59623 1.04116 -102.511 -43.7998 57.7481 -28.1397 4.03624 14.1094 -19.9585 -6.85315 -91.7971 15.0812 0.548741 -0.215147 6.58865 -0.970316 0.936586 -10.2952 -1.10715 -0.524272 
-163.517 96.5519 -176.749 94.6995 -46.2994 105.177 -167.543 6.13551 100.855 -20.912 0.549325 -0.29627 71.315 5.29452 8.14375 32.2385 4.36905 -12.2964 -176.231 -0.166925 101.428 -7.18717 -1.90339 -0.166879 63.3692 -2.17768 -1.26135 27.9432 -0.567813 7.33665 1.47155 6.64507 -91.325 13.6084 2.27542 -2.95041 1.93587 2.14342 -3.04762 -20.5995 3.05673 -2.13039 -0.586822 3.05673 -2.13039 83.2534 -52.9258 -110.061 22.7766 -15.2084 11.995 20.4473 2.30747 -97.8514 -11.9414 -0.67559 1.66073 -102.822 -43.8332 57.2924 -27.8437 3.71936 14.1191 -19.1005 -6.85574 -91.5184 14.2382 0.476908 -0.480734 5.62562 -0.971802 0.781572 -10.5049 -1.10181 -0.0557391 
-163.065 96.5746 -176.676 95.8506 -46.9289 107.32 -167.116 5.7439 102.096 -21.6374 0.179169 -0.12893 72.0028 5.2399 7.90059 32.3276 4.42056 -11.4699 -175.687 -0.870604 102.527 -7.21645 -2.4774 -0.063317 63.5826 -2.23109 -1.29494 27.9837 -0.530799 6.88116 1.5899 6.71563 -91.4838 13.4713 2.43559 -3.2838 1.7982 2.28878 -3.3877 -20.7353 3.3096 -2.40037 -0.722638 3.30961 -2.40038 83.4745 -52.8675 -109.759 22.7468 -14.7046 11.8953 20.4928 2.31897 -97.7285 -11.2244 -0.573033 1.24401 -102.668 -43.7151 57.4708 -28.1256 4.20975 13.5683 -20.2242 -6.95301 -91.6503 15.6487 0.59407 -0.0547008 4.51279 -0.805091 0.984764 -10.3824 -0.967265 -0.055591 
-162.866 96.5348 -176.648 96.4408 -47.3712 108.338 -166.747 5.55446 102.747 -21.9318 0.198444 -0.257065 72.3822 5.47659 8.09032 32.1538 4.2868 -12.1309 -175.262 -1.10566 103.105 -7.36297 -2.81481 -0.216237 63.7391 -2.34652 -1.36553 28.296 -0.488272 6.81912 1.64468 6.75704 -91.5485 13.3903 2.51452 -3.42 1.71705 2.36166 -3.52723 -20.8159 3.4258 -2.50661 -0.803215 3.42579 -2.50662 83.3677 -52.7966 -109.937 22.7303 -14.7585 11.7414 20.3429 2.30828 -97.8028 -11.3309 -0.621897 1.65846 -102.636 -43.7849 57.5517 -27.7889 4.1558 13.3022 -18.7256 -6.89468 -91.5521 14.3108 0.54008 -0.0718017 3.03181 -0.654828 0.99152 -12.5888 -0.813505 0.0188113 
-163.018 96.5375 -176.661 96.4094 -47.5128 107.995 -166.739 5.48934 102.457 -21.7829 0.0517527 -0.314518 72.3763 5.72177 8.06918 31.8196 3.98723 -12.1809 -175.105 -0.838634 103.023 -7.61126 -2.84721 -0.513193 63.7486 -2.49676 -1.46066 28.5251 -0.456579 6.75133 1.6123 6.83621 -91.4904 13.2306 2.48114 -3.29295 1.55753 2.33389 -3.39885 -20.9767 3.35582 -2.39539 -0.964035 3.3558 -2.3954 83.0877 -52.7033 -110.375 22.0911 -15.1456 10.8137 20.4648 2.4398 -97.643 -11.6826 -0.647861 1.66547 -102.512 -43.7847 57.7392 -26.8831 4.3088 12.5233 -19.3196 -7.0297 -91.182 14.1152 0.474641 -0.460831 0.106312 -0.358866 1.40343 -14.7591 -0.502788 -0.490961 
-163.665 96.4991 -176.762 95.5376 -47.357 105.818 -167.425 5.90449 100.844 -21.5381 -0.186834 -0.230664 71.5228 5.42869 7.93511 32.2221 4.31893 -11.3164 -175.464 0.0435053 101.907 -7.89191 -2.49203 -0.888531 63.2523 -2.54778 -1.50445 28.584 -0.463893 6.9807 1.50523 6.98326 -91.2714 12.9322 2.37864 -2.8309 1.26015 2.2518 -2.93279 -21.2786 3.11929 -1.98526 -1.26592 3.11928 -1.98527 82.258 -53.0419 -111.464 20.8486 -16.7215 8.97192 27.3188 4.44923 -99.5389 -14.1171 -1.30145 4.97954 -102.484 -43.7106 57.7472 -25.3726 4.32943 10.9036 -19.4604 -7.2154 -90.4529 14.2635 0.450745 -0.663095 -3.8266 -0.0576248 1.72144 -15.9896 -0.163938 -0.695723 
-164.867 96.4629 -176.927 93.7882 -46.4512 101.455 -168.314 6.31698 98.0097 -19.9107 0.0254946 -0.555641 69.7806 5.32674 8.1705 32.4249 4.50902 -11.4583 -176.164 1.56648 99.6608 -8.20613 -1.9575 -1.65607 62.6894 -2.72349 -1.62598 28.6338 -0.443859 6.76777 1.29811 7.20005 -90.867 12.4915 2.16644 -1.98147 0.82067 2.07716 -2.07489 -21.7233 2.66173 -1.23862 -1.71069 2.66174 -1.23861 81.0926 -53.8984 -112.838 18.0462 -14.9291 6.62891 26.5343 4.9773 -98.422 -10.3138 -1.18154 9.23189 -103.004 -43.6404 56.9277 -23.1515 3.73533 8.77215 -19.4526 -7.71267 -88.9618 12.2276 0.295269 -1.35893 -8.14567 -0.124503 1.19284 -15.851 -0.212517 0.0408659 
-166.555 96.3375 -177.283 90.635 -43.9935 95.2791 -169.758 8.17771 94.3225 -18.3479 1.1186 -1.0191 67.7086 5.26705 8.10582 31.7409 3.85644 -10.8322 -177.38 6.38743 96.8139 -12.5682 0.762299 -2.21733 63.415 -2.9349 -1.70419 29.9612 -0.357529 8.16014 0.901675 7.43942 -90.3912 12.0039 1.60823 -0.954256 0.333591 1.56468 -1.02413 -22.2089 1.82064 -0.426687 -2.19628 1.82065 -0.42669 81.5186 -53.1505 -112.492 16.199 -11.5042 2.8052 23.4821 3.5526 -94.8436 -2.53536 0.0613105 6.49915 -103.792 -43.4253 55.635 -20.517 3.59633 6.20909 -19.7784 -8.21304 -87.3885 12.4433 0.168309 -2.38354 -11.2364 -0.46704 1.46703 -15.2709 -0.496091 -0.369632 
-168.569 96.0345 -177.999 88.5187 -38.4746 88.7636 -172.02 9.78118 89.3969 -16.0264 3.95477 -1.41824 64.2283 5.59663 9.09967 32.2842 4.40464 -12.1478 -179.389 12.6632 92.1614 -20.5508 3.98681 -2.58856 66.2251 -2.94724 -1.61951 31.1133 -0.195438 7.9756 0.172848 7.78335 -89.8318 11.3049 0.42234 0.293389 -0.366086 0.434853 0.274511 -22.9005 0.31466 0.406756 -2.88786 0.314643 0.406748 80.619 -53.232 -113.755 13.2373 -9.23795 -0.272418 17.5312 1.5743 -91.4598 1.59484 0.437875 1.0103 -104.829 -42.7423 53.7377 -18.0083 3.21685 3.49868 -22.2548 -9.44965 -85.1708 13.8029 0.156554 -2.62658 -14.8594 -2.13725 0.870988 -12.6308 -2.12444 -0.6737 
-169.87 95.5336 -178.637 85.0772 -35.816 84.6067 -173.153 14.0421 86.8695 -16.7835 5.12823 -1.79589 62.6334 6.14582 10.074 33.3421 5.36721 -12.5814 -179.774 18.5765 90.0007 -24.9151 5.60221 -2.6956 67.1087 -2.76217 -1.49672 32.3384 -0.0469558 8.42794 -0.0853458 8.05943 -89.6825 10.7543 -0.0234116 0.634211 -0.916822 0.00451063 0.634613 -23.4509 -0.212939 0.597857 -3.43823 -0.212934 0.597849 80.0658 -52.6883 -114.751 10.5753 -6.57707 -2.8375 14.6036 -0.566795 -89.464 4.32036 0.580759 0.897952 -105.99 -42.1613 51.6935 -14.5742 2.21326 -0.705126 -20.8279 -10.7551 -80.7713 10.7957 -0.0226135 -3.77949 -15.3602 -2.32961 1.0058 -10.8655 -2.35214 -0.161056 
-170.857 94.9062 -179.294 82.0051 -34.2205 82.9476 -173.003 19.3883 86.5482 -20.2048 6.28412 -2.20989 62.701 7.41633 11.379 34.8801 6.74068 -12.4485 -179.703 23.1516 89.8371 -27.3486 7.13343 -2.29357 68.0323 -2.87679 -1.54484 33.4337 0.098844 8.52207 -0.0986795 8.4197 -89.8775 10.0346 -0.140816 0.254895 -1.63638 -0.129459 0.260841 -24.1715 -0.210925 0.200792 -4.15882 -0.210899 0.200803 79.5515 -50.8777 -116.201 8.90787 -4.80853 -5.31367 19.9236 7.20949 -87.1248 5.68268 0.641206 -1.74586 -106.996 -41.7842 49.9819 -11.4521 1.24155 -6.61197 -19.5369 -12.8479 -74.2239 7.3854 -0.196824 -5.61512 -15.1475 -2.73926 2.30431 -8.20229 -2.76394 -0.541729 
